# xmcd CD database file
#
# Track frame offsets:
#	150
#	19962
#	38567
#	61320
#	84279
#	125395
#	148605
#	171535
#	194895
#	218397
#	240772
#	264295
#
# Disc length: 3828 seconds
#
# Revision: 0
# Processed by: cddbd v1.5.1PL0 Copyright (c) Steve Scherf et al.
# Submitted via: CDex 1.51
#
DISCID=9e0ef20c
DTITLE=Michael Pluznick - Heat Beat
DYEAR=1995
DGENRE=New Age
TTITLE0=Riding the Dragon
TTITLE1=Buddha's Beat
TTITLE2=Skywalking
TTITLE3=The Lion's Den
TTITLE4=Percussion Discussion
TTITLE5=Universal Roots
TTITLE6=Havana Cabana
TTITLE7=The Elder
TTITLE8=Soulfire
TTITLE9=Ju Ju Jump
TTITLE10=Love Stomp
TTITLE11=Village Fête
EXTD=YEAR: 1995
EXTT0=
EXTT1=
EXTT2=
EXTT3=
EXTT4=
EXTT5=
EXTT6=
EXTT7=
EXTT8=
EXTT9=
EXTT10=
EXTT11=
PLAYORDER=
